<?xml version="1.0" standalone="no"?><!DOCTYPE svg PUBLIC "-//W3C//DTD SVG 1.1//EN" "http://www.w3.org/Graphics/SVG/1.1/DTD/svg11.dtd"><svg t="1509688379972" class="icon" style="" viewBox="0 0 1024 1024" version="1.1" xmlns="http://www.w3.org/2000/svg" p-id="1773" xmlns:xlink="http://www.w3.org/1999/xlink" width="200" height="200"><defs><style type="text/css">@font-face { font-family: uc-nexus-iconfont; src: url("chrome-extension://pogijhnlcfmcppgimcaccdkmbedjkmhi/res/font_9qmmi8b8jsxxbt9.woff") format("woff"), url("chrome-extension://pogijhnlcfmcppgimcaccdkmbedjkmhi/res/font_9qmmi8b8jsxxbt9.ttf") format("truetype"); }
</style></defs><path d="M511.997 637.98l381.002 0 0-63.461-381.002 0L511.997 637.98zM511.997 764.985l381.002 0 0-63.487-381.002 0L511.997 764.985zM511.997 891.989l381.002 0 0-63.461-381.002 0L511.997 891.989zM765.993 130.037l-63.493 0 0 380.963 63.493 0L765.993 130.037zM258.006 891.989l63.493 0 0-380.989-63.493 0L258.006 891.989zM892.998 130.037l-63.506 0 0 380.963 63.506 0L892.998 130.037zM194.507 511l-63.505 0 0 380.989 63.505 0L194.507 511zM511.997 384.021l-380.995 0 0 63.461 380.995 0L511.997 384.021zM956.491 3l-888.983 0c-35.071 0-63.506 28.46-63.506 63.487l0 889.021c0 35.058 28.435 63.493 63.506 63.493l888.983 0c35.071 0 63.505-28.435 63.505-63.493L1019.996 66.487C1019.997 31.461 991.562 3 956.491 3zM956.491 955.508l-888.983 0L67.508 66.487l888.983 0L956.491 955.508zM511.997 130.037l-380.995 0 0 63.461 380.995 0L511.997 130.037zM511.997 257.016l-380.995 0 0 63.487 380.995 0L511.997 257.016zM638.995 130.037l-63.493 0 0 380.963 63.493 0L638.995 130.037zM385.005 891.989l63.493 0 0-380.989-63.493 0L385.005 891.989z" p-id="1774"></path></svg>